<svg width="32" height="32" viewBox="0 0 32 32" fill="none" xmlns="http://www.w3.org/2000/svg">
<path d="M28.5821 1.08069H24.7187C23.5266 1.08069 22.5601 2.04707 22.5601 3.23923V7.10268C22.5601 8.29485 23.5266 9.26129 24.7187 9.26129H28.5821C29.7743 9.26129 30.7407 8.29485 30.7407 7.10268V3.23923C30.7407 2.04707 29.7743 1.08069 28.5821 1.08069Z" fill="#B72136"/>
<path d="M13.4526 9.49154H16.8452C18.2491 9.57133 19.5845 10.1244 20.6337 11.0606L20.7609 11.202C21.702 12.2481 22.2558 13.5853 22.3299 14.9905V18.3689C22.3299 18.9575 22.5638 19.522 22.98 19.9382C23.3962 20.3544 23.9607 20.5883 24.5493 20.5883H28.5215C29.1101 20.5883 29.6746 20.3544 30.0908 19.9382C30.507 19.522 30.7409 18.9575 30.7409 18.3689V14.3968C30.7409 13.8081 30.507 13.2437 30.0908 12.8275C29.6746 12.4113 29.1101 12.1774 28.5215 12.1774H25.143C23.7379 12.1032 22.4007 11.5494 21.3546 10.6083L21.2132 10.4811C20.2751 9.43315 19.7217 8.09706 19.6441 6.69264V3.30002C19.6441 2.71146 19.4104 2.14694 18.9941 1.73073C18.5779 1.31453 18.0134 1.08069 17.4248 1.08069H13.4526C12.864 1.08069 12.2995 1.31453 11.8833 1.73073C11.4671 2.14694 11.2333 2.71146 11.2333 3.30002V7.27227C11.2333 7.86083 11.4671 8.4253 11.8833 8.8415C12.2995 9.2577 12.864 9.49154 13.4526 9.49154Z" fill="#D1E9FC"/>
<path d="M29.1576 23.3993H25.7968C24.3979 23.3085 23.0724 22.7281 22.044 21.7561L21.666 21.3703C20.7337 20.3129 20.1851 18.9612 20.1116 17.5409V14.1116C20.1079 13.5178 19.8752 12.9494 19.4637 12.5294C19.0521 12.1095 18.4951 11.872 17.9131 11.8683H14.5524C13.165 11.8087 11.8399 11.2638 10.7997 10.3251L10.4216 9.93928C9.48932 8.8819 8.94072 7.53021 8.86722 6.10987V2.69491C8.86722 2.09993 8.63558 1.5293 8.22334 1.10857C7.81104 0.687896 7.25186 0.451538 6.66877 0.451538H2.7339C2.15088 0.451538 1.59164 0.687896 1.1794 1.10857C0.767098 1.5293 0.535461 2.09993 0.535461 2.69491V6.71001C0.535461 7.30499 0.767098 7.87562 1.1794 8.2963C1.59164 8.71703 2.15088 8.95339 2.7339 8.95339H6.08065C7.49382 9.01934 8.84047 9.58512 9.88948 10.5537L10.2675 10.9395C11.1969 11.9988 11.745 13.3493 11.8219 14.7688V18.1982C11.8255 18.792 12.0583 19.3604 12.4698 19.7803C12.8813 20.2002 13.4384 20.4378 14.0203 20.4415H17.381C18.7576 20.5294 20.0648 21.0882 21.0919 22.0276L21.4699 22.4134C22.3993 23.4726 22.9474 24.8232 23.0243 26.2428V29.6721C23.0279 30.2659 23.2607 30.8343 23.6722 31.2542C24.0837 31.6741 24.6408 31.9116 25.2227 31.9154H29.1715C29.7535 31.9116 30.3106 31.6741 30.7221 31.2542C31.1336 30.8343 31.3664 30.2659 31.37 29.6721V25.6426C31.3663 25.0464 31.1316 24.4758 30.7171 24.0555C30.3026 23.6352 29.7419 23.3993 29.1576 23.3993Z" fill="#2065D1"/>
<path d="M29.1576 23.3993H25.7968C24.3979 23.3085 23.0724 22.7281 22.044 21.7561L21.666 21.3703C20.7337 20.3129 20.1851 18.9612 20.1116 17.5409V14.1116C20.1079 13.5178 19.8752 12.9494 19.4637 12.5294C19.0521 12.1095 18.4951 11.872 17.9131 11.8683H14.5524C13.165 11.8087 11.8399 11.2638 10.7997 10.3251L10.4216 9.93928C9.48932 8.8819 8.94072 7.53021 8.86722 6.10987V2.69491C8.86722 2.09993 8.63558 1.5293 8.22334 1.10857C7.81104 0.687896 7.25186 0.451538 6.66877 0.451538H2.7339C2.15088 0.451538 1.59164 0.687896 1.1794 1.10857C0.767098 1.5293 0.535461 2.09993 0.535461 2.69491V6.71001C0.535461 7.30499 0.767098 7.87562 1.1794 8.2963C1.59164 8.71703 2.15088 8.95339 2.7339 8.95339H6.08065C7.49382 9.01934 8.84047 9.58512 9.88948 10.5537L10.2675 10.9395C11.1969 11.9988 11.745 13.3493 11.8219 14.7688V18.1982C11.8255 18.792 12.0583 19.3604 12.4698 19.7803C12.8813 20.2002 13.4384 20.4378 14.0203 20.4415H17.381C18.7576 20.5294 20.0648 21.0882 21.0919 22.0276L21.4699 22.4134C22.3993 23.4726 22.9474 24.8232 23.0243 26.2428V29.6721C23.0279 30.2659 23.2607 30.8343 23.6722 31.2542C24.0837 31.6741 24.6408 31.9116 25.2227 31.9154H29.1715C29.7535 31.9116 30.3106 31.6741 30.7221 31.2542C31.1336 30.8343 31.3664 30.2659 31.37 29.6721V25.6426C31.3663 25.0464 31.1316 24.4758 30.7171 24.0555C30.3026 23.6352 29.7419 23.3993 29.1576 23.3993Z" fill="black" fill-opacity="0.2"/>
<path d="M7.02073 23.1055H2.86007C1.57622 23.1055 0.535461 24.0719 0.535461 25.2641V29.1275C0.535461 30.3197 1.57622 31.2861 2.86007 31.2861H7.02073C8.30458 31.2861 9.34534 30.3197 9.34534 29.1275V25.2641C9.34534 24.0719 8.30458 23.1055 7.02073 23.1055Z" fill="#B72136"/>
<path d="M17.8237 22.8752H14.4452C13.0401 22.801 11.7029 22.2473 10.6568 21.3062L10.5154 21.179C9.57131 20.1236 9.01755 18.7765 8.94632 17.3623V13.9696C8.93933 13.398 8.71204 12.8511 8.31175 12.4429C7.91147 12.0347 7.36909 11.7968 6.79765 11.7786H2.75479C2.16617 11.7786 1.60171 12.0124 1.1855 12.4286C0.769299 12.8448 0.535461 13.4093 0.535461 13.9979V17.9701C0.535461 18.5587 0.769299 19.1232 1.1855 19.5394C1.60171 19.9556 2.16617 20.1894 2.75479 20.1894H6.14742C7.55127 20.2692 8.88672 20.8223 9.93585 21.7585L10.0631 21.8999C11.0042 22.946 11.558 24.2832 11.6321 25.6883V29.0668C11.6321 29.3594 11.69 29.6492 11.8024 29.9193C11.9149 30.1895 12.0796 30.4348 12.2872 30.6411C12.4947 30.8474 12.7411 31.0105 13.012 31.1212C13.2829 31.2319 13.573 31.288 13.8656 31.2861H17.8237C18.4123 31.2861 18.9768 31.0523 19.393 30.6361C19.8092 30.2199 20.043 29.6554 20.043 29.0668V25.0946C20.043 24.506 19.8092 23.9415 19.393 23.5253C18.9768 23.1091 18.4123 22.8752 17.8237 22.8752Z" fill="#D1E9FC"/>
</svg>
